<svg width="213" height="48" viewBox="0 0 213 48" fill="none" xmlns="http://www.w3.org/2000/svg">
<path d="M16.2739 28.0494C15.0537 26.8404 14.0594 25.43 13.3176 23.8454C12.7694 22.6637 12.3824 21.4276 12.162 20.1533C11.4686 16.1454 12.4899 12.0231 14.9086 8.83203C13.9196 9.04441 12.9521 9.37659 12.0222 9.81767C8.34575 11.5711 5.84637 14.8548 4.92188 18.5632C7.01812 18.6286 9.01225 19.8538 9.96362 21.9013C10.6194 23.3117 10.6946 24.8964 10.1732 26.3558C9.65188 27.8206 8.60375 28.9969 7.21162 29.6612C7.174 29.6776 7.13637 29.6939 7.10412 29.7102C7.51262 30.2766 7.9695 30.7994 8.464 31.2895C11.4632 34.2573 15.7202 35.586 19.8482 34.8563C20.9985 34.6548 22.1165 34.2899 23.1754 33.7835C24.1052 33.3424 24.9706 32.7979 25.7607 32.1553C22.224 32.0355 18.8377 30.5815 16.2739 28.0494Z" fill="#BE1733"/>
<path d="M38.2744 26.8026C36.9199 23.8946 38.1561 20.4149 41.0264 19.0427C41.0747 19.0209 41.1231 19.0045 41.1661 18.9773C40.677 18.2531 40.1234 17.5778 39.4999 16.9625C36.5006 13.9946 32.2436 12.6659 28.1156 13.3956C26.9708 13.5971 25.8474 13.962 24.7885 14.463C23.8586 14.904 22.9933 15.4486 22.2031 16.0912C25.7399 16.2164 29.1261 17.6704 31.69 20.2026C32.9101 21.406 33.9045 22.8219 34.6463 24.4065C35.1945 25.5828 35.5815 26.8243 35.8019 28.0986C36.4952 32.1065 35.474 36.2234 33.0552 39.4199C34.0442 39.2075 35.0117 38.8753 35.9416 38.4342C39.1021 36.9258 41.494 34.263 42.6765 30.9303C42.7732 30.6635 42.8539 30.3857 42.9345 30.1135C40.9834 29.9229 39.172 28.7248 38.2744 26.8026Z" fill="#BE1733"/>
<path d="M38.1059 12.0091C36.617 8.80715 33.9833 6.38388 30.6992 5.18586C30.5003 5.10962 30.3014 5.04972 30.1025 4.98438C29.9897 7.05368 28.791 9.00863 26.8077 9.95071C26.0175 10.3265 25.1844 10.5062 24.362 10.5062C22.2013 10.5062 20.1265 9.27002 19.1483 7.15715C19.073 6.99923 19.0085 6.83586 18.9494 6.67249C18.213 7.17348 17.5304 7.75071 16.9069 8.39329C13.9775 11.4319 12.6607 15.7448 13.3809 19.927C13.5798 21.0869 13.9399 22.225 14.4344 23.2977C14.8698 24.2398 15.4073 25.1166 16.0415 25.917C16.1705 22.3284 17.6003 18.9032 20.105 16.3057C21.2929 15.0695 22.6904 14.0621 24.2545 13.3106C25.4155 12.7552 26.641 12.3631 27.8988 12.1398C31.8548 11.4373 35.9183 12.472 39.0734 14.917C38.8692 13.926 38.5413 12.9458 38.1059 12.0091Z" fill="#22315E"/>
<path d="M34.5778 28.3143C34.3789 27.1544 34.0188 26.0163 33.5243 24.9435C33.0889 24.0014 32.5514 23.1247 31.9171 22.3242C31.7881 25.9074 30.3584 29.3381 27.859 31.9356C26.6711 33.1717 25.2736 34.1792 23.7095 34.9307C22.5485 35.4861 21.323 35.8782 20.0653 36.1014C16.1092 36.8039 12.0404 35.7693 8.89062 33.3188C9.10025 34.3208 9.42813 35.301 9.8635 36.243C11.3524 39.445 13.9861 41.8683 17.2703 43.0663C17.668 43.2079 18.0658 43.3331 18.4689 43.4366C18.4528 42.7341 18.5656 42.0262 18.8021 41.3455C19.3235 39.8807 20.3716 38.7044 21.7638 38.0401C23.1559 37.3757 24.72 37.2995 26.1605 37.8277C27.6064 38.3559 28.7674 39.4178 29.4231 40.8282C29.4715 40.9371 29.5199 41.0569 29.5629 41.1658C30.095 40.7628 30.5949 40.3217 31.0571 39.8371C33.9811 36.8039 35.298 32.4911 34.5778 28.3143Z" fill="#22315E"/>
<path d="M28.4622 44.8645C28.8707 43.7155 28.8116 42.4739 28.3009 41.3685C27.7903 40.263 26.8766 39.4244 25.7424 39.0106C25.2426 38.8309 24.7266 38.7383 24.2106 38.7383C23.5548 38.7383 22.8991 38.8853 22.2917 39.1794C21.2006 39.6967 20.3728 40.6224 19.9643 41.7714C19.5558 42.9205 19.6149 44.162 20.1256 45.2675C20.6362 46.3729 21.5499 47.2115 22.6841 47.6254C23.8182 48.0393 25.0437 47.9794 26.1348 47.462C27.2313 46.9393 28.0537 46.0135 28.4622 44.8645Z" fill="#BE1733"/>
<path d="M24.3448 0.101562C23.6998 0.101562 23.0441 0.243147 22.426 0.537206C20.1738 1.61542 19.2063 4.34364 20.2652 6.62533C21.3295 8.90701 24.0223 9.89265 26.2745 8.81443C28.5266 7.73622 29.4941 5.008 28.4352 2.72631C27.672 1.07087 26.038 0.101562 24.3448 0.101562Z" fill="#BE1733"/>
<path d="M43.4698 19.7383C42.8248 19.7383 42.1691 19.8799 41.551 20.1739C39.2988 21.2521 38.3313 23.9804 39.3902 26.262C40.4545 28.5437 43.1473 29.5239 45.3995 28.4512C47.6516 27.3729 48.6191 24.6447 47.5602 22.363C46.797 20.7076 45.1683 19.7383 43.4698 19.7383Z" fill="#22315E"/>
<path d="M4.75108 19.8086C4.10608 19.8086 3.45033 19.9502 2.8322 20.2442C0.580076 21.3225 -0.387423 24.0507 0.671452 26.3324C1.7357 28.614 4.42858 29.5942 6.6807 28.5215C8.93283 27.4432 9.90033 24.715 8.84145 22.4333C8.0782 20.7779 6.4442 19.8086 4.75108 19.8086Z" fill="#22315E"/>
<path d="M184.156 18.2427C185.821 18.2427 187.171 16.875 187.171 15.1878C187.171 13.5006 185.821 12.1328 184.156 12.1328C182.491 12.1328 181.141 13.5006 181.141 15.1878C181.141 16.875 182.491 18.2427 184.156 18.2427Z" fill="#BE1733"/>
<path d="M134.131 35.5408C132.454 35.5408 131.094 34.1631 131.094 32.4641V19.6398C131.094 15.5938 134.34 12.3047 138.334 12.3047C142.327 12.3047 145.574 15.5938 145.574 19.6398V19.6888C145.574 21.3879 144.214 22.7656 142.537 22.7656C140.86 22.7656 139.5 21.3879 139.5 19.6888V19.6398C139.5 18.9864 138.974 18.4582 138.334 18.4582C137.694 18.4582 137.168 18.9918 137.168 19.6398V32.4586C137.168 34.1577 135.808 35.5354 134.131 35.5354V35.5408Z" fill="#22315E"/>
<path d="M150.943 35.5408C149.266 35.5408 147.906 34.1631 147.906 32.4641V19.6398C147.906 18.9864 147.38 18.4582 146.74 18.4582C146.095 18.4582 145.574 18.9918 145.574 19.6398V23.9473C145.574 25.6463 144.214 27.024 142.537 27.024C140.86 27.024 139.5 25.6463 139.5 23.9473V19.6398C139.5 15.5938 142.747 12.3047 146.74 12.3047C150.734 12.3047 153.98 15.5938 153.98 19.6398V32.4586C153.98 34.1577 152.62 35.5354 150.943 35.5354V35.5408Z" fill="#22315E"/>
<path d="M167.554 27.0474C169.22 27.0474 170.57 25.6797 170.57 23.9925C170.57 22.3052 169.22 20.9375 167.554 20.9375C165.889 20.9375 164.539 22.3052 164.539 23.9925C164.539 25.6797 165.889 27.0474 167.554 27.0474Z" fill="#BE1733"/>
<path d="M71.6872 35.5856H55.9922V12.3984H71.6872C75.6808 12.3984 78.9273 15.6875 78.9273 19.7336C78.9273 21.3182 78.4274 22.794 77.5836 23.992C78.4274 25.19 78.9273 26.6603 78.9273 28.2504C78.9273 32.2965 75.6808 35.5856 71.6872 35.5856ZM62.0659 29.4321H71.6872C72.3322 29.4321 72.8536 28.8984 72.8536 28.2504C72.8536 27.6024 72.3268 27.0687 71.6872 27.0687H67.4356C65.7586 27.0687 64.3987 25.691 64.3987 23.992C64.3987 22.293 65.7586 20.9153 67.4356 20.9153H71.6872C72.3322 20.9153 72.8536 20.3816 72.8536 19.7336C72.8536 19.0856 72.3268 18.5519 71.6872 18.5519H62.0659V29.4212V29.4321Z" fill="#22315E"/>
<path d="M121.725 35.8908H113.318C109.325 35.8908 106.078 32.6017 106.078 28.5556V19.4289C106.078 15.3829 109.325 12.0938 113.318 12.0938H121.725C125.718 12.0938 128.965 15.3829 128.965 19.4289V28.5502C128.965 32.5962 125.718 35.8908 121.725 35.8908ZM113.313 18.2527C112.668 18.2527 112.146 18.7863 112.146 19.4343V28.5556C112.146 29.2091 112.673 29.7373 113.313 29.7373H121.719C122.364 29.7373 122.886 29.2036 122.886 28.5556V19.4343C122.886 18.7809 122.359 18.2527 121.719 18.2527H113.313Z" fill="#22315E"/>
<path d="M175.959 35.8908C174.282 35.8908 172.922 34.5131 172.922 32.814V19.4289C172.922 18.7754 172.396 18.2472 171.756 18.2472H163.35C162.705 18.2472 162.183 18.7809 162.183 19.4289V32.8086C162.183 34.5076 160.823 35.8853 159.146 35.8853C157.469 35.8853 156.109 34.5076 156.109 32.8086V19.4289C156.109 15.3829 159.356 12.0938 163.35 12.0938H171.756C175.75 12.0938 178.996 15.3829 178.996 19.4289V32.8086C178.996 34.5076 177.636 35.8853 175.959 35.8853V35.8908Z" fill="#22315E"/>
<path d="M205.524 35.5965H192.318C190.641 35.5965 189.281 34.2187 189.281 32.5197C189.281 30.8207 190.641 29.443 192.318 29.443H205.524C206.17 29.443 206.691 28.9093 206.691 28.2613V19.7336C206.691 19.0801 206.164 18.5519 205.524 18.5519H192.318C190.641 18.5519 189.281 17.1742 189.281 15.4752C189.281 13.7762 190.641 12.3984 192.318 12.3984H205.524C209.518 12.3984 212.765 15.6875 212.765 19.7336V28.2504C212.765 32.2965 209.518 35.5856 205.524 35.5856V35.5965Z" fill="#22315E"/>
<path d="M96.7169 35.8908H88.3104C84.3168 35.8908 81.0703 32.6017 81.0703 28.5556V19.4289C81.0703 15.3829 84.3168 12.0938 88.3104 12.0938H96.7169C100.711 12.0938 103.957 15.3829 103.957 19.4289V28.5502C103.957 32.5962 100.705 35.8908 96.7169 35.8908ZM88.3051 18.2527C87.6601 18.2527 87.1387 18.7863 87.1387 19.4343V28.5556C87.1387 29.2091 87.6654 29.7373 88.3051 29.7373H96.7116C97.3566 29.7373 97.8779 29.2036 97.8779 28.5556V19.4343C97.8779 18.7809 97.3512 18.2527 96.7116 18.2527H88.3051Z" fill="#22315E"/>
<path d="M184.162 35.9011C182.485 35.9011 181.125 34.5233 181.125 32.8243V22.358C181.125 20.659 182.485 19.2812 184.162 19.2812C185.839 19.2812 187.199 20.659 187.199 22.358V32.8189C187.199 34.5179 185.839 35.9011 184.162 35.9011Z" fill="#22315E"/>
</svg>
